<?xml version="1.0" encoding="UTF-8" standalone="no"?>
<!DOCTYPE svg PUBLIC "-//W3C//DTD SVG 1.1//EN" "http://www.w3.org/Graphics/SVG/1.1/DTD/svg11.dtd">
<svg width="100%" height="100%" viewBox="0 0 1121 778" version="1.1" xmlns="http://www.w3.org/2000/svg" xmlns:xlink="http://www.w3.org/1999/xlink" xml:space="preserve" xmlns:serif="http://www.serif.com/" style="fill-rule:evenodd;clip-rule:evenodd;stroke-linejoin:round;stroke-miterlimit:2;">
    <circle cx="212.592" cy="103" r="64" style="fill:rgb(255,226,132);"/>
    <g transform="matrix(1,0,0,1,-39.7039,-61.0421)">
        <path d="M563.68,404.164C563.68,555.175 473.906,607.903 363.165,607.903C252.423,607.903 162.649,555.175 162.649,404.164C162.649,253.152 363.165,61.042 363.165,61.042C363.165,61.042 563.68,253.152 563.68,404.164Z" style="fill:rgb(242,242,242);fill-rule:nonzero;"/>
    </g>
    <path d="M316.156,523.761L318.21,397.378L403.674,241.024L318.532,377.552L319.455,320.725L378.357,207.605L319.699,305.687L321.359,203.481L384.433,113.423L321.621,187.409L322.658,0L316.138,248.096L316.674,237.861L252.547,139.704L315.646,257.508L309.671,371.654L309.493,368.625L235.565,265.329L309.269,379.328L308.522,393.603L308.388,393.818L308.449,394.99L293.29,684.589L313.544,684.589L315.974,535.005L389.496,421.285L316.156,523.761Z" style="fill:rgb(63,61,86);fill-rule:nonzero;"/>
    <g transform="matrix(1,0,0,1,-39.7039,-61.0421)">
        <path d="M1160.3,466.014C1160.3,589.624 1086.81,632.784 996.165,632.784C905.517,632.784 832.033,589.624 832.033,466.014C832.033,342.404 996.165,185.152 996.165,185.152C996.165,185.152 1160.3,342.404 1160.3,466.014Z" style="fill:rgb(242,242,242);fill-rule:nonzero;"/>
    </g>
    <path d="M950.482,552.833L952.162,449.383L1022.12,321.4L952.426,433.154L953.182,386.639L1001.4,294.044L953.382,374.329L954.741,290.669L1006.37,216.952L954.954,277.514L955.804,124.11L950.467,327.188L950.906,318.811L898.414,238.464L950.064,334.893L945.173,428.327L945.027,425.847L884.514,341.294L944.844,434.608L944.232,446.293L944.123,446.469L944.173,447.428L931.764,684.478L948.343,684.478L950.332,562.037L1010.51,468.952L950.482,552.833Z" style="fill:rgb(63,61,86);fill-rule:nonzero;"/>
    <ellipse cx="554.592" cy="680.479" rx="554.592" ry="28.034" style="fill:rgb(63,61,86);"/>
    <ellipse cx="892.445" cy="726.797" rx="94.989" ry="4.802" style="fill:rgb(63,61,86);"/>
    <ellipse cx="548.72" cy="773.114" rx="94.989" ry="4.802" style="fill:rgb(63,61,86);"/>
    <ellipse cx="287.944" cy="734.279" rx="217.014" ry="10.97" style="fill:rgb(63,61,86);"/>
    <circle cx="97.084" cy="566.27" r="79" style="fill:rgb(47,46,65);"/>
    <g transform="matrix(0.999931,0.0117823,-0.0117823,0.999931,-31.3245,-62.3101)">
        <rect x="99.805" y="689.023" width="24" height="43" style="fill:rgb(47,46,65);"/>
    </g>
    <g transform="matrix(0.999931,0.0117823,-0.0117823,0.999931,-31.3145,-62.8755)">
        <rect x="147.802" y="689.589" width="24" height="43" style="fill:rgb(47,46,65);"/>
    </g>
    <g transform="matrix(0.0117823,-0.999931,0.999931,0.0117823,-654.132,782.479)">
        <ellipse cx="119.546" cy="732.616" rx="7.5" ry="20" style="fill:rgb(47,46,65);"/>
    </g>
    <g transform="matrix(0.0117823,-0.999931,0.999931,0.0117823,-606.255,830.055)">
        <ellipse cx="167.554" cy="732.182" rx="7.5" ry="20" style="fill:rgb(47,46,65);"/>
    </g>
    <circle cx="99.319" cy="546.295" r="27" style="fill:white;"/>
    <circle cx="99.319" cy="546.295" r="9" style="fill:rgb(63,61,86);"/>
    <g transform="matrix(1,0,0,1,-39.7039,-61.0421)">
        <path d="M61.026,552.946C54.984,524.306 75.713,495.682 107.326,489.013C138.939,482.344 169.464,500.156 175.506,528.796C181.548,557.437 160.528,567.726 128.915,574.395C97.302,581.064 67.068,581.587 61.026,552.946Z" style="fill:rgb(221,0,241);fill-rule:nonzero;"/>
    </g>
    <g transform="matrix(1,0,0,1,-39.7039,-61.0421)">
        <path d="M257.296,671.384C257.296,726.46 224.556,745.69 184.166,745.69C183.23,745.69 182.296,745.68 181.364,745.659C179.492,745.619 177.639,745.53 175.807,745.405C139.356,742.825 111.036,722.606 111.036,671.384C111.036,618.376 178.775,551.488 183.863,546.538L183.872,546.529C184.068,546.337 184.166,546.244 184.166,546.244C184.166,546.244 257.296,616.308 257.296,671.384Z" style="fill:rgb(221,0,241);fill-rule:nonzero;"/>
    </g>
    <g transform="matrix(1,0,0,1,-39.7039,-61.0421)">
        <path d="M181.502,737.265L208.249,699.891L181.435,741.368L181.364,745.659C179.492,745.619 177.639,745.53 175.807,745.405L178.69,690.303L178.668,689.875L178.717,689.795L178.989,684.591L152.108,643.011L179.073,680.687L179.136,681.792L181.315,640.159L158.301,597.194L181.595,632.852L183.863,546.538L183.872,546.244L183.872,546.529L183.493,614.593L206.404,587.61L183.4,620.457L182.794,657.732L204.185,621.958L182.705,663.217L182.366,683.94L213.422,634.149L182.25,691.172L181.502,737.265Z" style="fill:rgb(63,61,86);fill-rule:nonzero;"/>
    </g>
    <circle cx="712.485" cy="565.415" r="79" style="fill:rgb(47,46,65);"/>
    <g transform="matrix(0.955878,-0.293764,0.293764,0.955878,-215.995,191.864)">
        <rect x="741.777" y="691.824" width="24" height="43" style="fill:rgb(47,46,65);"/>
    </g>
    <g transform="matrix(0.95588,-0.29376,0.29376,0.95588,-209.828,204.72)">
        <rect x="787.659" y="677.723" width="24" height="43" style="fill:rgb(47,46,65);"/>
    </g>
    <g transform="matrix(0.955878,-0.293764,0.293764,0.955878,-220.859,196.833)">
        <ellipse cx="767.887" cy="732.003" rx="20" ry="7.5" style="fill:rgb(47,46,65);"/>
    </g>
    <g transform="matrix(0.955878,-0.293764,0.293764,0.955878,-214.425,209.561)">
        <ellipse cx="813.475" cy="716.946" rx="20" ry="7.5" style="fill:rgb(47,46,65);"/>
    </g>
    <circle cx="708.522" cy="545.71" r="27" style="fill:white;"/>
    <circle cx="708.522" cy="545.71" r="9" style="fill:rgb(63,61,86);"/>
    <g transform="matrix(1,0,0,1,-39.7039,-61.0421)">
        <path d="M657.355,578.743C642.866,553.31 653.877,519.727 681.949,503.734C710.022,487.741 744.525,495.393 759.015,520.827C773.504,546.26 756.624,562.47 728.552,578.463C700.479,594.457 671.845,604.176 657.355,578.743Z" style="fill:rgb(221,0,241);fill-rule:nonzero;"/>
    </g>
    <g transform="matrix(1,0,0,1,-39.7039,-61.0421)">
        <path d="M611.296,661.299C611.296,711.856 581.242,729.509 544.166,729.509C543.307,729.509 542.45,729.499 541.594,729.48C539.876,729.443 538.174,729.361 536.493,729.247C503.033,726.879 477.036,708.318 477.036,661.299C477.036,612.639 539.217,551.24 543.888,546.696L543.896,546.687C544.076,546.512 544.166,546.426 544.166,546.426C544.166,546.426 611.296,610.742 611.296,661.299Z" style="fill:rgb(221,0,241);fill-rule:nonzero;"/>
    </g>
    <g transform="matrix(1,0,0,1,-39.7039,-61.0421)">
        <path d="M541.72,721.774L566.273,687.467L541.659,725.541L541.594,729.48C539.876,729.443 538.174,729.361 536.493,729.247L539.139,678.665L539.119,678.272L539.164,678.199L539.414,673.422L514.738,635.253L539.491,669.839L539.549,670.853L541.549,632.636L520.423,593.195L541.806,625.928L543.888,546.696L543.896,546.426L543.896,546.687L543.549,609.167L564.58,584.398L543.463,614.549L542.906,648.767L562.543,615.928L542.825,653.802L542.514,672.825L571.021,627.118L542.407,679.463L541.72,721.774Z" style="fill:rgb(63,61,86);fill-rule:nonzero;"/>
    </g>
    <g transform="matrix(1,0,0,1,-39.7039,-61.0421)">
        <path d="M875.296,682.384C875.296,737.46 842.556,756.69 802.166,756.69C801.23,756.69 800.296,756.68 799.364,756.659C797.492,756.619 795.639,756.53 793.807,756.405C757.356,753.825 729.036,733.606 729.036,682.384C729.036,629.376 796.775,562.488 801.863,557.538L801.872,557.529C802.068,557.337 802.166,557.244 802.166,557.244C802.166,557.244 875.296,627.308 875.296,682.384Z" style="fill:rgb(221,0,241);fill-rule:nonzero;"/>
    </g>
    <g transform="matrix(1,0,0,1,-45.4963,-71.8603)">
        <path d="M799.502,748.265L826.249,710.891L799.435,752.368L799.364,756.659C797.492,756.619 795.639,756.53 793.807,756.405L796.69,701.303L796.668,700.875L796.717,700.795L796.989,695.591L770.108,654.011L797.073,691.687L797.136,692.792L799.315,651.159L776.301,608.194L799.595,643.852L801.863,557.538L801.872,557.244L801.872,557.529L801.493,625.593L824.404,598.61L801.4,631.457L800.794,668.732L822.185,632.958L800.705,674.217L800.366,694.94L831.422,645.149L800.25,702.172L799.502,748.265Z" style="fill:rgb(63,61,86);fill-rule:nonzero;"/>
    </g>
    <g transform="matrix(0.428529,-0.903528,0.903528,0.428529,-220.835,966.223)">
        <ellipse cx="721.517" cy="656.822" rx="12.4" ry="39.5" style="fill:rgb(47,46,65);"/>
    </g>
    <g transform="matrix(0.372044,-0.928215,0.928215,0.372044,-574.079,452.714)">
        <ellipse cx="112.517" cy="651.822" rx="12.4" ry="39.5" style="fill:rgb(47,46,65);"/>
    </g>
</svg>
