<?xml version="1.0" encoding="UTF-8" standalone="no"?>
<!DOCTYPE svg PUBLIC "-//W3C//DTD SVG 1.1//EN" "http://www.w3.org/Graphics/SVG/1.1/DTD/svg11.dtd">
<svg width="100%" height="100%" viewBox="0 0 1280 1280" version="1.1" xmlns="http://www.w3.org/2000/svg" xmlns:xlink="http://www.w3.org/1999/xlink" xml:space="preserve" xmlns:serif="http://www.serif.com/" style="fill-rule:evenodd;clip-rule:evenodd;stroke-linejoin:round;stroke-miterlimit:2;">
    <g transform="matrix(1.13963,0,0,1.13963,-411.611,-254.521)">
        <path d="M1237.36,623.522L1237.36,944.345C1237.36,1032.88 1165.48,1104.76 1076.95,1104.76L756.125,1104.76C667.591,1104.76 595.713,1032.88 595.713,944.345L595.713,623.522C595.713,534.989 667.591,463.111 756.125,463.111L1076.95,463.111C1165.48,463.111 1237.36,534.989 1237.36,623.522Z" style="fill:white;"/>
    </g>
    <g transform="matrix(1.13963,0,0,1.13963,-411.611,-254.521)">
        <g id="Icon">
            <path d="M595.713,664.839L595.713,623.522C595.713,534.989 667.591,463.111 756.125,463.111L845.066,463.111C811.216,470.861 777.047,484.296 743.339,503.757C672.199,544.83 622.366,601.086 595.713,664.839ZM983.442,463.111L1076.95,463.111C1165.48,463.111 1237.36,534.989 1237.36,623.522L1237.36,820.119L1151.77,774.052C1125.38,833.441 1083.98,883.558 1021.92,919.388C943.31,964.774 867.144,961.839 818.333,915.516L1216.55,685.603C1170.73,565.227 1084.39,487.292 983.442,463.111ZM1237.36,916.617L1237.36,944.345C1237.36,1032.88 1165.48,1104.76 1076.95,1104.76L955.085,1104.76C997.116,1096.19 1040.29,1079.62 1083.48,1054.68C1148.24,1017.3 1200.47,969.537 1237.36,916.617ZM823.106,1104.76L756.125,1104.76C667.591,1104.76 595.713,1032.88 595.713,944.345L595.713,895.684C602.654,913.627 611.213,931.501 621.421,949.18C670.148,1033.58 741.126,1086.67 823.106,1104.76ZM754.134,809.092C729.503,737.771 754.817,669.347 818.946,632.322C886.178,593.506 955.149,610.253 1004.44,664.576L754.134,809.092Z" style="fill:url(#_Linear1);"/>
        </g>
    </g>
    <defs>
        <linearGradient id="_Linear1" x1="0" y1="0" x2="1" y2="0" gradientUnits="userSpaceOnUse" gradientTransform="matrix(4.219e-14,689.015,-689.015,4.219e-14,915.714,442.577)"><stop offset="0" style="stop-color:rgb(0,4,248);stop-opacity:1"/><stop offset="1" style="stop-color:rgb(221,0,241);stop-opacity:1"/></linearGradient>
    </defs>
</svg>
