<?xml version="1.0" encoding="UTF-8" standalone="no"?><!DOCTYPE svg PUBLIC "-//W3C//DTD SVG 1.1//EN" "http://www.w3.org/Graphics/SVG/1.1/DTD/svg11.dtd"><svg width="100%" height="100%" viewBox="0 0 36 14" version="1.1" xmlns="http://www.w3.org/2000/svg" xmlns:xlink="http://www.w3.org/1999/xlink" xml:space="preserve" xmlns:serif="http://www.serif.com/" style="fill-rule:evenodd;clip-rule:evenodd;stroke-linejoin:round;stroke-miterlimit:2;"><g><path d="M1.136,4.758l-0,-0.681c-0,-1.458 1.184,-2.642 2.642,-2.642l1.466,-0c-0.558,0.128 -1.121,0.349 -1.676,0.67c-1.172,0.676 -1.993,1.603 -2.432,2.653Zm6.386,-3.323l1.541,-0c1.459,-0 2.643,1.184 2.643,2.642l-0,3.239l-1.41,-0.759c-0.435,0.979 -1.117,1.804 -2.139,2.395c-1.295,0.747 -2.55,0.699 -3.354,-0.064l6.56,-3.788c-0.755,-1.983 -2.177,-3.267 -3.841,-3.665Zm4.184,7.471l-0,0.457c-0,1.458 -1.184,2.642 -2.643,2.642l-2.006,0c0.692,-0.141 1.403,-0.414 2.114,-0.825c1.067,-0.615 1.927,-1.402 2.535,-2.274Zm-6.825,3.099l-1.103,0c-1.458,0 -2.642,-1.184 -2.642,-2.642l-0,-0.802c0.114,0.296 0.255,0.59 0.423,0.881c0.803,1.39 1.972,2.265 3.322,2.563Zm-1.135,-4.87c-0.406,-1.175 0.011,-2.302 1.067,-2.912c1.108,-0.64 2.244,-0.364 3.056,0.531l-4.123,2.381Z" style="fill:url(#_Linear1);"/><g><path d="M13.998,12.005c0.447,0 0.845,-0.133 1.131,-0.358l-0.31,-0.502c-0.216,0.158 -0.467,0.251 -0.762,0.251c-0.374,0 -0.639,-0.167 -0.718,-0.433l1.893,0c0.147,-0.914 -0.413,-1.622 -1.313,-1.622c-0.801,0 -1.351,0.55 -1.351,1.337c0,0.792 0.56,1.327 1.43,1.327Zm-0.669,-1.553c0.059,-0.305 0.29,-0.497 0.595,-0.497c0.32,0 0.531,0.202 0.595,0.497l-1.19,-0Z" style="fill:#fff;fill-rule:nonzero;"/><rect x="15.714" y="8.304" width="0.801" height="3.637" style="fill:#fff;fill-rule:nonzero;"/><path d="M17.862,11.976c0.339,-0 0.659,-0.138 0.866,-0.345l0.014,0.31l0.693,0l-0,-1.578c-0,-0.644 -0.423,-1.012 -1.175,-1.012c-0.408,0 -0.708,0.069 -1.096,0.246l0.192,0.555c0.299,-0.128 0.53,-0.192 0.796,-0.192c0.379,0 0.546,0.118 0.546,0.388l0,0.064c-0.207,-0.054 -0.398,-0.078 -0.595,-0.078c-0.688,-0 -1.111,0.319 -1.111,0.85c0,0.472 0.344,0.792 0.87,0.792Zm-0.099,-0.831c0,-0.197 0.153,-0.3 0.443,-0.3c0.143,-0 0.315,0.029 0.502,0.083c-0.025,0.281 -0.266,0.492 -0.6,0.492c-0.227,0 -0.345,-0.103 -0.345,-0.275Z" style="fill:#fff;fill-rule:nonzero;"/><path d="M20.989,11.99c0.658,0 1.086,-0.309 1.086,-0.805c-0,-0.399 -0.285,-0.664 -0.934,-0.812c-0.339,-0.079 -0.433,-0.138 -0.433,-0.251c0,-0.103 0.094,-0.157 0.29,-0.157c0.241,-0 0.556,0.098 0.743,0.226l0.284,-0.526c-0.324,-0.201 -0.692,-0.304 -1.071,-0.304c-0.644,-0 -0.988,0.304 -0.988,0.751c0,0.428 0.285,0.679 0.924,0.827c0.32,0.073 0.423,0.147 0.423,0.251c0,0.118 -0.123,0.181 -0.334,0.181c-0.271,0 -0.546,-0.088 -0.846,-0.265l-0.285,0.545c0.344,0.221 0.732,0.339 1.141,0.339Z" style="fill:#fff;fill-rule:nonzero;"/><path d="M23.564,11.985c0.207,0 0.433,-0.044 0.629,-0.132l-0.172,-0.659c-0.108,0.045 -0.211,0.069 -0.304,0.069c-0.192,0 -0.286,-0.108 -0.286,-0.329l0,-0.895l0.63,-0l-0,-0.634l-0.63,0l0,-0.609l-0.771,-0l-0.015,0.609l-0.417,0l-0,0.634l0.403,-0l-0,0.974c-0,0.633 0.314,0.972 0.933,0.972Z" style="fill:#fff;fill-rule:nonzero;"/><path d="M24.587,11.941l0.801,0l-0,-1.327c-0,-0.334 0.182,-0.541 0.497,-0.541c0.285,0 0.423,0.172 0.423,0.497l-0,1.371l0.8,0l0,-1.588c0,-0.58 -0.363,-0.987 -0.928,-0.987c-0.305,-0 -0.581,0.118 -0.792,0.349l-0,-1.411l-0.801,0l0,3.637Z" style="fill:#fff;fill-rule:nonzero;"/><path d="M27.714,11.941l0.8,0l0,-2.536l-0.8,0l-0,2.536Zm-0.089,-3.293c0,0.28 0.197,0.472 0.487,0.472c0.294,0 0.491,-0.192 0.491,-0.472c-0,-0.28 -0.197,-0.467 -0.491,-0.467c-0.29,0 -0.487,0.187 -0.487,0.467Z" style="fill:#fff;fill-rule:nonzero;"/><path d="M30.348,12.005c0.467,0 0.86,-0.172 1.136,-0.516l-0.463,-0.472c-0.142,0.192 -0.378,0.3 -0.614,0.3c-0.379,0 -0.619,-0.265 -0.619,-0.644c-0,-0.379 0.25,-0.644 0.614,-0.644c0.206,-0 0.428,0.093 0.585,0.251l0.438,-0.497c-0.251,-0.285 -0.64,-0.442 -1.072,-0.442c-0.796,0 -1.356,0.55 -1.356,1.332c-0,0.782 0.56,1.332 1.351,1.332Z" style="fill:#fff;fill-rule:nonzero;"/><path d="M32.983,12.005c0.467,0 0.86,-0.172 1.135,-0.516l-0.462,-0.472c-0.142,0.192 -0.378,0.3 -0.614,0.3c-0.379,0 -0.62,-0.265 -0.62,-0.644c0,-0.379 0.251,-0.644 0.615,-0.644c0.206,-0 0.428,0.093 0.585,0.251l0.437,-0.497c-0.25,-0.285 -0.639,-0.442 -1.071,-0.442c-0.796,0 -1.356,0.55 -1.356,1.332c-0,0.782 0.56,1.332 1.351,1.332Z" style="fill:#fff;fill-rule:nonzero;"/></g></g><defs><linearGradient id="_Linear1" x1="0" y1="0" x2="1" y2="0" gradientUnits="userSpaceOnUse" gradientTransform="matrix(6.95011e-16,11.3504,-11.3504,6.95011e-16,6.40735,1.0967)"><stop offset="0" style="stop-color:#0004f8;stop-opacity:1"/><stop offset="1" style="stop-color:#dd00f1;stop-opacity:1"/></linearGradient></defs></svg>