<?xml version="1.0" encoding="UTF-8" standalone="no"?>
<!DOCTYPE svg PUBLIC "-//W3C//DTD SVG 1.1//EN" "http://www.w3.org/Graphics/SVG/1.1/DTD/svg11.dtd">
<svg width="100%" height="100%" viewBox="0 0 1018 709" version="1.1" xmlns="http://www.w3.org/2000/svg" xmlns:xlink="http://www.w3.org/1999/xlink" xml:space="preserve" xmlns:serif="http://www.serif.com/" style="fill-rule:evenodd;clip-rule:evenodd;stroke-miterlimit:10;">
    <g transform="matrix(1,0,0,1,-91.382,-95.898)">
        <path d="M685.63,207.25C620.91,205 559.27,184.11 500.4,161.25C441.53,138.39 383.24,113.06 320.07,101C279.44,93.21 232.98,92.11 200.24,113.89C168.74,134.89 158.56,171.04 153.08,204.61C148.97,229.88 146.54,256.46 157.83,280.11C165.66,296.53 179.57,310.33 189.19,326.06C222.65,380.78 199,448.26 162.73,501.69C145.73,526.75 125.99,550.69 112.86,577.35C99.73,604.01 93.66,634.6 105.14,661.82C116.53,688.82 143.66,709.06 173.04,723.31C232.73,752.25 303.04,760.54 371.66,765.23C523.48,775.62 676.12,771.12 828.34,766.62C884.68,764.95 941.26,763.26 996.68,754.55C1027.46,749.71 1059.24,742.03 1081.58,723.55C1109.94,700.02 1116.97,660.17 1097.97,630.67C1066.09,581.18 977.97,568.88 955.66,515.77C943.39,486.54 955.99,453.97 973.81,426.86C1012.05,368.69 1076.14,317.67 1079.52,251.18C1081.84,205.52 1051.03,159.79 1003.39,138.18C953.45,115.53 884.21,118.38 847.39,155.87C809.43,194.38 742.77,209.23 685.63,207.25Z" style="fill:rgb(221,0,241);fill-opacity:0.1;fill-rule:nonzero;"/>
    </g>
    <g opacity="0.1">
        <g transform="matrix(1,0,0,1,-91.39,-95.85)">
            <path d="M177.74,424.21C177.74,424.21 103,392.77 93.17,449.46C93.17,449.46 88.06,458.3 95.17,465.6C95.17,465.6 96.7,461.68 103.92,465.73C106.499,467.156 109.238,468.271 112.08,469.05C115.917,470.109 119.997,469.891 123.7,468.43C127.403,466.969 148.29,467.1 168.97,434.93C168.97,434.93 177.84,429.45 178.28,427.39L163.46,428.39C163.46,428.39 164.6,439.24 158.46,445.75C158.46,445.75 163.9,428.91 161.29,428.44C160.76,428.34 153.46,429.3 153.46,429.3C153.46,429.3 155.35,448.17 145.46,457.93C145.46,457.93 154.64,438.74 150.65,429.64L139.71,431.75C139.71,431.75 142.71,451.6 131.89,463.14C131.89,463.14 140.79,442.74 137.35,432.38L126.88,435.9C126.88,435.9 129.4,455.31 120.35,464.9C120.35,464.9 128.25,440.29 124.53,436.9C124.53,436.9 115.11,440.72 113.1,442.9C113.1,442.9 114.59,456.9 108.84,461.95C108.84,461.95 112.37,444.95 110.62,444.25C110.62,444.25 99.68,452.49 96.34,459.6C96.34,459.6 100.5,448.74 109.25,442.6C109.25,442.6 101.9,441.36 96.25,444.43C96.25,444.43 100.03,437.22 111.9,440.64C111.9,440.64 120.69,434.55 122.45,434.64C122.45,434.64 111.22,429.64 103.11,430.26C103.11,430.26 111.81,425.26 125.19,433.61L135.64,429.84C135.64,429.84 121.14,422.41 113.88,422.44C113.88,422.44 123.54,418.7 138.35,429.1L149.05,426.92C149.05,426.92 137.05,419.57 128.96,417.86C128.96,417.86 138.66,416.32 152.14,426.41L159.45,425.8C159.45,425.8 150.6,420.58 147.92,419.31C145.24,418.04 145.36,417.22 145.36,417.22C151.735,418.329 157.677,421.189 162.52,425.48C167.363,429.771 177.68,425.14 177.74,424.21Z" style="fill:rgb(221,0,241);fill-rule:nonzero;"/>
        </g>
    </g>
    <g opacity="0.1">
        <g transform="matrix(1,0,0,1,-91.39,-95.85)">
            <path d="M175,367.85C175,367.85 148.49,306.58 110.37,334.68C110.37,334.68 102.31,337.02 102.37,345.38C102.37,345.38 105.51,343.92 107.5,350.45C108.23,352.766 109.237,354.986 110.5,357.06C112.169,359.879 114.716,362.075 117.75,363.31C120.784,364.545 133.12,376.53 163.75,369.2C163.75,369.2 172.15,370.99 173.58,370.03L164.22,362.16C164.22,362.16 158.71,369.26 151.33,369.6C151.33,369.6 164.16,362.7 162.88,360.93C162.62,360.57 157.73,356.99 157.73,356.99C157.73,356.99 148.11,369.27 136.73,369.46C136.73,369.46 153.12,363.28 155.93,355.61L148.23,350.61C148.23,350.61 138.69,364.1 125.7,364.8C125.7,364.8 142.61,357.75 146.47,349.63L138.24,345.76C138.24,345.76 128.68,358.76 117.87,359.25C117.87,359.25 136.59,349.13 136.3,345C136.3,345 128.53,341.9 126.06,342.08C126.06,342.08 118.99,351.23 112.68,350.97C112.68,350.97 124.47,342.88 123.83,341.47C123.83,341.47 112.63,340.13 106.6,342.47C106.6,342.47 115.26,338.39 123.95,339.73C123.95,339.73 120.29,334.8 115.2,333.43C115.2,333.43 121.56,331.3 126.66,340.08C126.66,340.08 135.34,341.48 136.36,342.52C136.36,342.52 132.55,333.13 127.36,328.9C127.36,328.9 135.36,330.9 138.56,343.47L146.92,347.18C146.92,347.18 142.54,334.5 138.2,330.39C138.2,330.39 146.07,333.67 148.95,348.29L156.55,353.08C156.55,353.08 153.61,341.88 149.78,336.25C149.78,336.25 156.42,340.87 158.67,354.54L163.37,358.34C163.37,358.34 161.08,350.2 160.21,347.92C159.34,345.64 159.88,345.22 159.88,345.22C163.039,349.508 164.94,354.592 165.37,359.9C165.8,365.208 174.41,368.36 175,367.85Z" style="fill:rgb(221,0,241);fill-rule:nonzero;"/>
        </g>
    </g>
    <g transform="matrix(1,0,0,1,-91.39,-95.85)">
        <path d="M1024.66,763C1023.66,759.38 1022.66,755.71 1020.66,752.56C1018.81,749.887 1016.6,747.475 1014.1,745.39C1006.85,738.8 997.94,732.11 988.33,733.78C985.35,734.431 982.47,735.481 979.77,736.9C978.37,737.55 976.96,738.2 975.52,738.75C971.464,740.445 966.979,740.836 962.69,739.87C960.49,739.28 958.44,738.22 956.27,737.56C955.236,737.251 954.179,737.024 953.11,736.88C955.205,735.931 957.242,734.86 959.21,733.67C970,727 978.61,715 977.4,702.3C977,698 975.52,693.89 974.06,689.84C972.78,686.3 971.497,682.757 970.21,679.21C968.55,674.6 966.84,669.91 963.8,666.08C960.42,661.82 955.62,658.93 950.66,656.77C940,652.14 928.35,650.51 916.85,648.93L916.05,648.82L916.05,524.58C916.05,524.563 916.05,524.547 916.05,524.53C916.05,520.141 912.439,516.53 908.05,516.53C908.05,516.53 892.92,516.53 892.92,516.53C892.253,512.45 891.587,508.373 890.92,504.3C889.01,492.69 887.04,480.85 881.69,470.39C878.19,463.54 872.61,457.02 865.1,455.67C863.622,455.532 862.169,455.196 860.78,454.67C858.58,453.59 857.38,451.19 855.68,449.41C851.32,444.84 844.23,444.77 838.38,442.41C833.22,440.36 829,436.49 824.3,433.52C819.6,430.55 813.75,428.43 808.54,430.37C808.54,430.75 808.47,431.12 808.43,431.5L805.09,430C801.49,428.34 797.81,426.62 794.92,423.88C791.2,420.37 789.22,415.74 787.68,410.8C787.52,410.28 787.37,409.8 787.22,409.25C793.61,402.721 797.937,394.452 799.66,385.48C799.93,386.35 800.21,387.23 800.48,388.11C800.726,389.005 801.061,389.872 801.48,390.7C801.619,390.974 801.776,391.237 801.95,391.49C802.28,391.981 802.693,392.411 803.17,392.76C803.644,393.105 804.198,393.322 804.78,393.39C805.059,393.429 805.341,393.429 805.62,393.39C807.153,393.066 808.42,391.984 808.98,390.52C809.139,390.127 809.257,389.718 809.33,389.3C809.369,389.048 809.392,388.795 809.4,388.54L809.4,386.74C809.4,386.54 809.34,386.34 809.3,386.15C809.26,385.96 809.3,386.04 809.3,385.99C809.25,385.73 809.19,385.48 809.14,385.22C809.135,385.163 809.135,385.107 809.14,385.05L808.99,384.42L808.9,384.04L808.9,383.94C808.8,383.55 808.71,383.15 808.62,382.75C807.893,379.276 807.708,375.711 808.07,372.18C808.672,367.001 809.628,361.869 810.93,356.82L811.14,355.91L811.38,354.85C811.54,354.13 811.69,353.41 811.84,352.69C811.97,352.08 812.09,351.46 812.2,350.84C812.31,350.22 812.39,349.75 812.47,349.2L812.47,349C813.081,345.273 813.246,341.486 812.96,337.72C812.49,332.49 810.87,327.54 807.31,323.59C804.8,320.8 801.5,318.74 799.17,315.81C796.98,313.06 795.75,309.68 793.49,306.99C787.24,299.53 771.21,293.78 761.37,292.78C750.1,291.64 731.89,294.52 722.81,301.18C719.45,303.64 717.15,307.18 714.81,310.55C710.51,316.81 705.62,323.05 698.73,326.55C696.12,327.87 693.14,328.87 691.41,331.17C690.365,332.729 689.681,334.503 689.41,336.36C688.081,342.877 687.391,349.509 687.35,356.16C687.201,359.069 687.573,361.982 688.45,364.76C688.59,365.14 688.76,365.53 688.94,365.9C689.1,366.23 689.28,366.56 689.47,366.9L689.59,367.11C690.797,368.842 691.87,370.664 692.8,372.56C693.02,373.094 693.181,373.651 693.28,374.22C693.451,375.688 693.357,377.175 693,378.61C693,378.83 692.92,379.04 692.87,379.25L692.78,379.71C692.78,379.85 692.78,380 692.7,380.14C692.62,380.573 692.55,381.003 692.49,381.43C692.49,381.73 692.43,382.04 692.42,382.35C692.349,383.588 692.586,384.825 693.11,385.95C693.242,386.218 693.399,386.473 693.58,386.71C693.938,387.189 694.4,387.583 694.93,387.86C696.121,388.308 697.365,388.603 698.63,388.74C702.37,389.58 704.71,392.44 706.23,395.95C706.567,396.738 706.864,397.542 707.12,398.36C707.744,400.412 708.212,402.508 708.52,404.63C710.22,404.54 711.21,403.04 711.81,401.4C711.998,400.859 712.155,400.308 712.28,399.75C712.51,398.7 712.74,397.65 712.98,396.6C716.927,404.974 723.287,411.982 731.24,416.72C731.52,417.54 731.79,418.37 732.04,419.21C733.35,423.74 733.98,428.49 731.71,432.45C730.09,435.26 727.36,437 724.32,438.2C723.883,437.612 723.319,437.13 722.67,436.79C720.03,435.47 716.87,437.08 714.67,439.05C710.67,442.67 707.41,447.86 702.14,449.05C700.24,449.49 698.14,449.4 696.55,450.56C695.503,451.545 694.628,452.697 693.96,453.97C691.64,457.299 687.775,459.224 683.72,459.07C681.89,458.98 679.72,458.56 678.47,459.9C677.54,460.9 677.47,462.49 676.47,463.44C675.12,464.76 672.93,464.11 671.05,464.03C668.306,464.037 665.682,465.173 663.8,467.17C663.682,463.136 662.136,459.272 659.44,456.27C656.74,453.49 652.99,452.06 649.79,449.88C641.79,444.44 637.79,434.88 633.62,426.12C629.45,417.36 623.95,408.12 614.85,404.93C612.76,404.19 609.85,404.13 608.91,406.16C608.59,407.007 608.538,407.932 608.76,408.81C609.64,413.47 612.96,417.21 615.83,420.96C620.66,427.28 624.71,435.01 623.54,442.91C622.17,452.26 613.84,459.52 612.84,468.91C612.4,473.05 613.45,477.21 613.44,481.37C613.44,483.97 613.03,486.6 613.59,489.13C614.185,491.052 614.889,492.939 615.7,494.78C616.601,497.802 617.066,500.937 617.08,504.09C617.787,517.343 618.49,530.6 619.19,543.86C619.72,553.75 617.56,563.51 615.38,573.24C612.677,579.008 610.579,585.04 609.12,591.24C606.66,602.07 606.59,613.61 610.12,624.15C612.01,629.88 614.91,635.25 616.46,641.08C616.46,641.21 616.52,641.33 616.55,641.45C616.7,642.69 616.87,643.93 617.1,645.16C617.384,646.581 617.755,647.984 618.21,649.36C618.664,651.73 619.402,654.037 620.41,656.23C621.812,659.015 623.872,661.418 626.41,663.23C624.97,666.05 622.64,668.32 621.09,671.08C618.39,675.86 618.28,681.73 619.26,687.15C621.15,697.61 626.8,706.96 634.26,714.56C633.927,714.541 633.593,714.541 633.26,714.56C630.82,714.83 628.477,715.669 626.42,717.01C610.63,726.24 601.6,746.01 604.9,764.11C605.55,767.65 606.68,771.23 609.04,773.92C611.005,776.061 613.53,777.61 616.33,778.39C618.079,778.916 619.879,779.252 621.7,779.39C634.01,780.39 645.93,774.68 658.27,774.2C662.361,774.135 666.452,774.326 670.52,774.77C676.46,775.263 682.413,775.577 688.38,775.71C698.07,775.94 703.53,773.36 709.72,766.11C711.241,764.311 712.51,762.312 713.49,760.17C718.75,759.87 724.56,759.41 728.77,759.06L728.83,759.65C729.06,761.65 729.41,763.95 731.01,765.22C731.913,765.832 732.936,766.248 734.01,766.44C744.12,768.93 754.35,771.44 764.75,771.44C769.634,771.339 774.508,770.961 779.35,770.31L797.65,768.2C802.975,768.885 808.232,770.03 813.36,771.62C818.64,773.42 823.58,776.09 828.74,778.19C840.74,783.06 853.66,784.8 866.45,786.5C868.63,786.79 871.13,786.99 872.75,785.5C874.83,783.5 874.13,780.15 873.55,777.35C873.31,776.21 873.13,775.05 872.98,773.89C881.613,776.159 890.058,779.091 898.24,782.66L899.68,783.29C900.09,785.47 902.11,787.22 904.04,789.57C904.674,790.559 905.415,791.474 906.25,792.3C907.202,792.927 908.288,793.321 909.42,793.45C922.935,795.966 936.734,796.589 950.42,795.3C953.22,794.919 956.051,794.822 958.87,795.01C960.94,795.29 962.981,795.752 964.97,796.39L976.55,799.7C985.08,802.15 993.83,804.62 1002.68,804.07C1004.48,803.952 1006.26,803.695 1008.02,803.3C1015.02,801.68 1021.55,797.76 1024.91,791.46C1029.42,782.89 1027.23,772.36 1024.66,763ZM685,606.59C684.643,610.926 683.512,615.163 681.66,619.1C680.42,621.61 678.82,623.92 677.66,626.44C676.56,628.72 675.74,633.03 675.25,637.76C674.65,637.66 674.04,637.57 673.44,637.5C674.33,634.38 675,631.18 675.89,628.05C678,620.61 681.47,613.58 685,606.59Z" style="fill:url(#_Linear1);fill-rule:nonzero;"/>
    </g>
    <g transform="matrix(1,0,0,1,-91.39,-95.85)">
        <path d="M700.41,760.39C698.3,755.59 696.3,750.07 698.41,745.27C699.787,742.444 702.154,740.219 705.06,739.02C707.936,737.847 710.968,737.099 714.06,736.8C723.764,735.527 733.584,735.393 743.32,736.4C744.03,742.02 742.53,747.72 741.24,753.15C740.07,758.15 739.4,758.89 734.24,759.15C730.9,759.33 701.2,762.16 700.41,760.39Z" style="fill:rgb(251,190,190);fill-rule:nonzero;"/>
    </g>
    <ellipse cx="698.07" cy="592.16" rx="143" ry="40" style="fill:rgb(70,67,83);"/>
    <ellipse cx="698.07" cy="592.16" rx="143" ry="40" style="fill-opacity:0.1;"/>
    <g transform="matrix(1,0,0,1,-91.39,-95.85)">
        <path d="M815.1,476.85C810.2,486.319 802.055,493.718 792.16,497.69C786.333,499.814 780.2,500.982 774,501.15C767.21,501.46 760.28,501.02 753.9,498.7C745.34,495.6 738.23,489.26 732.9,481.87C727.57,474.48 723.9,466.04 720.71,457.53C719.03,453.1 717.43,448.38 718.22,443.7C723.37,442.53 729.01,440.81 731.67,436.24C733.94,432.32 733.31,427.62 732,423.14C731.63,421.87 731.2,420.61 730.77,419.4C729.77,416.5 726.32,410.99 728.72,408.51C730.25,406.94 736.66,406.14 738.87,405.12C745.68,401.98 751.96,397.44 759.44,395.95C765.91,394.66 772.59,395.87 779.05,397.21C779.907,397.335 780.73,397.631 781.47,398.08C782.314,398.791 782.938,399.728 783.27,400.78C785.11,405.26 786.19,410.21 787.67,414.88C789.21,419.77 791.19,424.36 794.9,427.83C797.79,430.54 801.47,432.24 805.07,433.89L813.93,437.95C815.506,438.54 816.935,439.465 818.12,440.66C819.279,442.252 819.971,444.136 820.12,446.1C821.707,456.621 819.951,467.38 815.1,476.85Z" style="fill:rgb(251,190,190);fill-rule:nonzero;"/>
    </g>
    <g transform="matrix(1,0,0,1,-91.39,-95.85)">
        <path d="M787.63,414.88C773.171,429.92 750.205,433.33 732,423.14C731.63,421.87 731.2,420.61 730.77,419.4C729.77,416.5 726.32,410.99 728.72,408.51C730.25,406.94 736.66,406.14 738.87,405.12C745.68,401.98 751.96,397.44 759.44,395.95C765.91,394.66 772.59,395.87 779.05,397.21C779.907,397.335 780.73,397.631 781.47,398.08C782.314,398.791 782.938,399.728 783.27,400.78C785.07,405.26 786.15,410.21 787.63,414.88Z" style="fill-opacity:0.1;fill-rule:nonzero;"/>
    </g>
    <circle cx="663.07" cy="285.16" r="46" style="fill:rgb(251,190,190);"/>
    <g transform="matrix(1,0,0,1,-91.39,-95.7137)">
        <path d="M894.61,530.3L890.83,507.4C888.92,495.91 886.95,484.2 881.61,473.85C878.1,467.07 872.53,460.61 865.02,459.27C863.541,459.138 862.087,458.802 860.7,458.27C858.5,457.21 857.3,454.83 855.61,453.07C851.25,448.55 844.15,448.48 838.31,446.18C833.15,444.18 828.93,440.33 824.23,437.39C819.53,434.45 813.68,432.39 808.48,434.27C807.64,443.22 806.75,452.37 802.95,460.52C796.511,474.334 782.589,483.204 767.348,483.204C758.812,483.204 750.504,480.421 743.69,475.28C734.78,468.57 729.07,458.22 726.41,447.39C725.76,444.75 725.02,441.72 722.59,440.51C719.96,439.19 716.8,440.79 714.59,442.73C710.54,446.32 707.32,451.46 702.06,452.67C700.16,453.11 698.06,453.02 696.48,454.17C695.43,455.139 694.551,456.278 693.88,457.54C691.544,460.841 687.691,462.747 683.65,462.6C681.82,462.51 679.65,462.09 678.4,463.42C677.47,464.42 677.4,465.98 676.4,466.91C675.05,468.22 672.86,467.58 670.98,467.51C667.42,467.36 664.11,469.64 662.07,472.51C660.03,475.38 659.07,478.93 658.07,482.37C669,506.71 679,531.08 689.93,555.42C690.442,556.337 690.714,557.369 690.72,558.42C690.501,559.51 690.036,560.537 689.36,561.42C684,570.03 684.17,580.86 684.76,590.98C685.35,601.1 686.07,611.79 681.55,620.86C680.32,623.35 678.72,625.63 677.55,628.12C674.81,633.76 673.82,651.8 675.42,657.86L901.42,657.86C897.11,646.01 898.75,622.23 899.65,609.65C900.28,600.85 898.65,592.06 897.95,583.26C896.48,565.29 897.58,548.24 894.61,530.3Z" style="fill:rgb(0,4,248);fill-rule:nonzero;"/>
    </g>
    <g transform="matrix(1,0,0,1,-91.39,-95.85)">
        <path d="M906.18,650.86C909.51,649.59 913.18,650.05 916.75,650.53C928.24,652.1 939.9,653.71 950.55,658.3C955.55,660.44 960.31,663.3 963.69,667.51C966.69,671.3 968.44,675.94 970.1,680.51L973.94,691C975.4,695 976.88,699.08 977.29,703.33C978.49,715.92 969.88,727.79 959.05,734.33C948.22,740.87 935.47,743.2 923.05,745.64C910.63,748.08 898.16,750.78 885.79,753.64C880.02,755.137 874.167,756.289 868.26,757.09C855.02,758.59 841.18,756.38 828.6,760.76C823.6,762.51 818.69,765.11 813.5,766.32C810.058,767.075 806.575,767.636 803.07,768L779.26,770.72C774.418,771.368 769.544,771.741 764.66,771.84C754.26,771.84 744.03,769.38 733.93,766.92C732.856,766.732 731.834,766.319 730.93,765.71C729.33,764.45 728.98,762.22 728.75,760.2C727.73,751.26 726.837,742.31 726.07,733.35C725.83,730.44 725.65,727.29 727.24,724.84C729.24,721.84 733.14,720.9 736.7,720.32C751.796,717.85 767.088,716.789 782.38,717.15C788.19,711.34 797.77,711.31 805.38,708.15C808.18,706.864 810.889,705.391 813.49,703.74C827.096,695.801 842.303,690.994 858,689.67C861.075,689.576 864.131,689.14 867.11,688.37C873,686.54 878.37,681.56 884.42,682.78C885.17,680.71 885.69,677.94 887.42,676.52C888.28,675.79 889.34,675.3 890.13,674.52C891.8,672.83 891.95,670.17 891.7,667.81C891.45,665.45 890.89,663.03 891.5,660.73C891.754,659.859 892.127,659.028 892.61,658.26C895.62,653 900.15,650.36 906.18,650.86Z" style="fill:rgb(70,67,83);fill-rule:nonzero;"/>
    </g>
    <g transform="matrix(1,0,0,1,-91.39,-95.85)">
        <path d="M906.18,650.86C909.51,649.59 913.18,650.05 916.75,650.53C928.24,652.1 939.9,653.71 950.55,658.3C955.55,660.44 960.31,663.3 963.69,667.51C966.69,671.3 968.44,675.94 970.1,680.51L973.94,691C975.4,695 976.88,699.08 977.29,703.33C978.49,715.92 969.88,727.79 959.05,734.33C948.22,740.87 935.47,743.2 923.05,745.64C910.63,748.08 898.16,750.78 885.79,753.64C880.02,755.137 874.167,756.289 868.26,757.09C855.02,758.59 841.18,756.38 828.6,760.76C823.6,762.51 818.69,765.11 813.5,766.32C810.058,767.075 806.575,767.636 803.07,768L779.26,770.72C774.418,771.368 769.544,771.741 764.66,771.84C754.26,771.84 744.03,769.38 733.93,766.92C732.856,766.732 731.834,766.319 730.93,765.71C729.33,764.45 728.98,762.22 728.75,760.2C727.73,751.26 726.837,742.31 726.07,733.35C725.83,730.44 725.65,727.29 727.24,724.84C729.24,721.84 733.14,720.9 736.7,720.32C751.796,717.85 767.088,716.789 782.38,717.15C788.19,711.34 797.77,711.31 805.38,708.15C808.18,706.864 810.889,705.391 813.49,703.74C827.096,695.801 842.303,690.994 858,689.67C861.075,689.576 864.131,689.14 867.11,688.37C873,686.54 878.37,681.56 884.42,682.78C885.17,680.71 885.69,677.94 887.42,676.52C888.28,675.79 889.34,675.3 890.13,674.52C891.8,672.83 891.95,670.17 891.7,667.81C891.45,665.45 890.89,663.03 891.5,660.73C891.754,659.859 892.127,659.028 892.61,658.26C895.62,653 900.15,650.36 906.18,650.86Z" style="fill-opacity:0.05;fill-rule:nonzero;"/>
    </g>
    <g transform="matrix(1,0,0,1,-91.39,-95.85)">
        <path d="M709.61,766.57C703.42,773.74 697.97,776.3 688.28,776.07C682.32,775.93 676.367,775.62 670.42,775.14C666.355,774.7 662.268,774.51 658.18,774.57C645.84,775.05 633.93,780.7 621.62,779.71C619.8,779.567 618,779.232 616.25,778.71C613.473,777.937 610.964,776.41 609,774.3C606.64,771.63 605.51,768.09 604.86,764.59C601.57,746.65 610.59,727.11 626.38,717.98C628.44,716.65 630.782,715.817 633.22,715.55C635.61,715.54 637.974,716.059 640.14,717.07L640.29,717.13C646.705,719.77 652.532,723.658 657.43,728.57C658.173,729.421 659.06,730.135 660.05,730.68C661.038,731.053 662.084,731.249 663.14,731.26L676.28,732.09C678.506,732.156 680.719,732.462 682.88,733C685.262,733.832 687.582,734.834 689.82,736C696.89,739.16 704.73,740 712.37,741.22C713.106,741.261 713.809,741.542 714.37,742.02C714.675,742.399 714.887,742.844 714.99,743.32C717.154,751.475 715.136,760.194 709.61,766.57Z" style="fill:rgb(63,61,86);fill-rule:nonzero;"/>
    </g>
    <g transform="matrix(1,0,0,1,-91.39,-95.85)">
        <path d="M640.25,717.13C635.152,721.998 630.729,727.527 627.1,733.57C621.276,743.542 617.617,754.63 616.36,766.11C615.883,770.298 615.847,774.524 616.25,778.72C613.472,777.944 610.962,776.414 609,774.3C606.64,771.63 605.51,768.09 604.86,764.59C601.57,746.65 610.59,727.11 626.38,717.98C628.44,716.65 630.782,715.817 633.22,715.55C635.61,715.54 637.974,716.059 640.14,717.07L640.25,717.13Z" style="fill-opacity:0.1;fill-rule:nonzero;"/>
    </g>
    <g transform="matrix(1,0,0,1,-91.39,-95.85)">
        <path d="M894.74,742C902.09,741.8 910.34,741.43 915.74,746.38C920.89,751.06 921.57,758.78 921.91,765.73L922.3,773.8C922.42,776.26 922.52,778.8 921.53,781.08C919.77,785.08 914.94,787.01 910.53,786.78C906.12,786.55 902.07,784.62 898.04,782.88C887.099,778.167 875.707,774.578 864.04,772.17C864.42,766.59 865.053,761.037 865.94,755.51C866.55,751.68 866.65,745.27 869.21,742.09C871.92,738.73 875.45,740.55 879.13,741.17C884.294,741.958 889.522,742.236 894.74,742Z" style="fill:rgb(251,190,190);fill-rule:nonzero;"/>
    </g>
    <g transform="matrix(1,0,0,1,-91.39,-95.85)">
        <path d="M700.52,660.92C700.52,661.92 698.95,660.92 698.81,659.85C697.71,651.76 691.29,645.09 683.81,641.85C676.33,638.61 667.81,638.44 659.71,639.21C647.46,640.37 633.76,645.06 629.23,656.51C628.17,659.19 627.69,662.09 626.39,664.66C624.95,667.48 622.6,669.73 621.04,672.47C618.35,677.21 618.24,683.02 619.21,688.38C621.82,702.68 631.6,714.91 643.45,723.38C655.3,731.85 669.15,736.91 682.96,741.47C719.477,753.513 756.942,762.462 794.96,768.22C801.12,769.15 807.34,770.01 813.24,771.99C818.52,773.76 823.46,776.41 828.62,778.49C840.62,783.31 853.53,785.03 866.32,786.72C868.5,787 871,787.2 872.61,785.72C874.69,783.79 874,780.43 873.41,777.66C871.239,767.14 873.054,756.179 878.5,746.92C880.64,743.32 883.42,739.63 883.02,735.46C882.54,730.6 877.7,727.16 872.88,726.38C868.06,725.6 863.16,726.75 858.32,727.38C856.65,727.6 854.83,727.74 853.32,726.89C852.601,726.404 851.948,725.826 851.38,725.17C844.558,718.589 834.205,717.142 825.84,721.6C824.05,722.6 821.34,720.37 819.48,719.53L798.47,710C774.31,699.07 750.03,688.09 724.47,681.17C722.431,680.769 720.492,679.963 718.77,678.8C717.5,677.8 716.59,676.44 715.42,675.33C712.87,672.92 709.32,671.96 706.26,670.25C703.2,668.54 699.8,664.35 700.52,660.92Z" style="fill:rgb(70,67,83);fill-rule:nonzero;"/>
    </g>
    <g transform="matrix(1,0,0,1,-91.39,-95.85)">
        <path d="M1024.71,791.61C1021.35,797.84 1014.83,801.72 1007.83,803.32C1006.07,803.716 1004.29,803.971 1002.49,804.08C993.64,804.63 984.9,802.18 976.37,799.76L964.79,796.48C962.799,795.853 960.758,795.398 958.69,795.12C955.874,794.932 953.046,795.029 950.25,795.41C936.564,796.683 922.767,796.064 909.25,793.57C908.119,793.448 907.033,793.061 906.08,792.44C905.245,791.622 904.504,790.713 903.87,789.73C900.72,785.94 897.33,783.73 901.06,778.73C903.21,775.83 907.2,774.38 908.87,771.05C910.54,767.72 909.47,762.99 908.48,759.55C907.13,754.8 902.69,752.75 901.1,748.39C899.91,745.1 901.91,741.28 904.92,739.49C907.93,737.7 911.65,737.56 915.12,738.02C918.59,738.48 921.99,739.46 925.48,739.73C935.74,740.55 946.23,735.26 956.08,738.24C958.25,738.9 960.3,739.95 962.5,740.53C966.788,741.489 971.27,741.101 975.33,739.42C976.77,738.88 978.18,738.23 979.58,737.59C982.28,736.184 985.155,735.145 988.13,734.5C997.74,732.85 1006.65,739.5 1013.9,745.99C1016.39,748.055 1018.59,750.443 1020.45,753.09C1022.45,756.21 1023.51,759.84 1024.45,763.42C1027.1,772.69 1029.29,783.11 1024.71,791.61Z" style="fill:rgb(63,61,86);fill-rule:nonzero;"/>
    </g>
    <g transform="matrix(1,0,0,1,-91.39,-95.85)">
        <path d="M1024.71,791.61C1021.35,797.84 1014.83,801.72 1007.83,803.32C1010.55,798.03 1011.78,792.096 1011.38,786.16C1010.78,776.65 1006.6,767.69 1001.27,759.79C997.991,754.927 994.261,750.384 990.13,746.22C986.95,743.02 983.04,740.48 979.62,737.55C982.32,736.144 985.195,735.105 988.17,734.46C997.78,732.81 1006.69,739.46 1013.94,745.95C1016.43,748.015 1018.63,750.403 1020.49,753.05C1022.49,756.17 1023.55,759.8 1024.49,763.38C1027.1,772.69 1029.29,783.11 1024.71,791.61Z" style="fill-opacity:0.1;fill-rule:nonzero;"/>
    </g>
    <g transform="matrix(1,0,0,1,-91.39,-95.85)">
        <path d="M722.68,306.35C719.32,308.78 717.02,312.27 714.68,315.62C710.37,321.81 705.49,327.99 698.6,331.44C695.99,332.75 693.01,333.74 691.28,336.02C690.253,337.562 689.587,339.315 689.33,341.15C688.01,347.601 687.32,354.165 687.27,360.75C687.27,364.03 687.41,367.41 688.86,370.39C690.23,373.19 692.7,375.56 693.21,378.61C693.6,380.99 692.72,383.36 692.41,385.75C692.1,388.14 692.64,390.97 694.85,392.11C696.041,392.558 697.284,392.85 698.55,392.98C705.2,394.46 707.43,402.26 708.44,408.71C710.7,408.58 711.72,405.99 712.19,403.88L719.12,373.07C719.87,369.73 721.12,365.86 724.45,364.69C726.68,363.92 729.12,364.64 731.45,364.84C740.6,365.59 748.34,358.52 757.29,356.57C760.155,355.995 763.084,355.803 766,356C773.06,356.35 781.27,359.25 782.77,365.84C783.02,366.91 783.17,368.19 784.17,368.72C785.17,369.25 786.17,368.8 787.27,368.72C791.75,368.27 794.39,373.31 795.68,377.43L800.38,392.43C801.08,394.7 802.26,397.37 804.72,397.66C806.99,397.94 808.92,395.79 809.26,393.66C809.6,391.53 808.86,389.32 808.37,387.18C806.16,377.33 809.54,367.25 811.6,357.38C813.66,347.51 814.03,336.17 807.12,328.57C804.61,325.82 801.31,323.77 798.97,320.87C796.79,318.15 795.56,314.81 793.3,312.14C787.05,304.77 771.02,299.08 761.19,298.14C750,296.91 731.76,299.76 722.68,306.35Z" style="fill:rgb(63,61,86);fill-rule:nonzero;"/>
    </g>
    <g opacity="0.1">
        <g transform="matrix(1,0,0,1,-91.39,-95.85)">
            <path d="M804.76,390.65C802.3,390.35 801.12,387.65 800.42,385.42C798.853,380.413 797.287,375.413 795.72,370.42C794.43,366.29 791.79,361.25 787.31,361.71C786.31,361.82 785.13,362.23 784.21,361.71C783.29,361.19 783.06,359.9 782.81,358.83C781.31,352.23 773.1,349.34 766.04,348.99C763.124,348.799 760.196,348.99 757.33,349.56C748.33,351.56 740.64,358.56 731.49,357.83C729.13,357.64 726.69,356.92 724.49,357.69C721.12,358.85 719.91,362.69 719.16,366.07L712.23,396.87C711.76,398.99 710.74,401.58 708.48,401.7C707.48,395.26 705.24,387.46 698.59,385.98C697.326,385.841 696.084,385.549 694.89,385.11C694.02,384.635 693.339,383.876 692.96,382.96C692.78,383.89 692.57,384.82 692.45,385.75C692.15,388.13 692.68,390.97 694.89,392.11C696.081,392.558 697.324,392.85 698.59,392.98C705.24,394.46 707.47,402.26 708.48,408.71C710.74,408.58 711.76,405.99 712.23,403.88L719.16,373.07C719.91,369.73 721.16,365.86 724.49,364.69C726.72,363.92 729.16,364.64 731.49,364.84C740.64,365.59 748.38,358.52 757.33,356.57C760.182,355.999 763.098,355.807 766,356C773.06,356.35 781.27,359.25 782.77,365.84C783.02,366.91 783.17,368.19 784.17,368.72C785.17,369.25 786.17,368.8 787.27,368.72C791.75,368.27 794.39,373.31 795.68,377.43C797.24,382.437 798.807,387.437 800.38,392.43C801.08,394.7 802.26,397.37 804.72,397.66C806.99,397.94 808.92,395.79 809.26,393.66C809.414,391.868 809.21,390.063 808.66,388.35C807.935,389.822 806.399,390.728 804.76,390.65Z" style="fill-rule:nonzero;"/>
        </g>
        <g transform="matrix(1,0,0,1,-91.39,-95.85)">
            <path d="M693.22,371.61C692.71,368.56 690.22,366.19 688.87,363.39C688.002,361.501 687.5,359.465 687.39,357.39C687.39,358.51 687.29,359.63 687.28,360.76C687.28,364.04 687.42,367.42 688.87,370.4C689.98,372.67 691.81,374.67 692.73,376.98C693.215,375.234 693.381,373.415 693.22,371.61Z" style="fill-rule:nonzero;"/>
        </g>
        <g transform="matrix(1,0,0,1,-91.39,-95.85)">
            <path d="M811.64,350.33C809.82,359.05 806.98,367.93 807.86,376.67C808.43,370.22 810.31,363.73 811.64,357.33C812.748,352.473 813.139,347.48 812.8,342.51C812.582,345.139 812.195,347.751 811.64,350.33Z" style="fill-rule:nonzero;"/>
        </g>
    </g>
    <g transform="matrix(1,0,0,1,-91.39,-95.85)">
        <path d="M697.16,574.5C695.95,594.36 681.38,610.77 675.83,629.87C674.45,634.65 673.62,639.61 671.64,644.16C667.64,653.31 659.41,659.95 650.64,664.63C647.44,666.479 643.94,667.752 640.3,668.39C632.125,669.345 624.167,665.113 620.39,657.8C618.1,653.15 617.78,647.8 616.39,642.8C614.84,637.03 611.94,631.71 610.05,626.04C606.57,615.61 606.64,604.19 609.05,593.47C611.334,584.148 614.947,575.202 619.78,566.91C620.48,565.68 621.19,564.46 621.92,563.25C623.983,559.752 626.299,556.41 628.85,553.25C634.85,546.02 642.56,540.46 650.19,534.98C650.773,534.5 651.456,534.158 652.19,533.98L652.31,533.98C653.17,533.95 654.023,534.15 654.78,534.56C665.361,539.135 675.518,544.636 685.13,551C688.57,553.29 694,555.85 695.8,559.75C697.6,563.65 697.42,570.26 697.16,574.5Z" style="fill:rgb(251,190,190);fill-rule:nonzero;"/>
    </g>
    <g transform="matrix(1,0,0,1,-91.39,-95.85)">
        <path d="M657.46,483.11C656.486,484.13 655.73,485.338 655.24,486.66C647.157,504.877 642.382,524.389 641.14,544.28C641.162,545.25 640.938,546.21 640.49,547.07C640.048,547.642 639.556,548.175 639.02,548.66C638.18,549.656 637.719,550.917 637.719,552.219C637.719,553.97 638.552,555.62 639.96,556.66C641.61,553.55 645.56,552.54 649.07,552.27C665.88,550.94 682.3,558.76 699.16,558.17C697.97,554.06 696.26,550.11 695.29,545.95C691,527.48 701.7,507.37 695.14,489.58C693.83,486.02 691.64,482.52 688.19,480.96C686.762,480.383 685.267,479.987 683.74,479.78C679.48,479.01 671,475.72 666.88,477.04C665.36,477.53 664.76,478.96 663.5,479.82C661.63,481.05 659.09,481.48 657.46,483.11Z" style="fill:rgb(0,4,248);fill-rule:nonzero;"/>
    </g>
    <g transform="matrix(1,0,0,1,-91.39,-95.85)">
        <path d="M664.35,648.46C659.127,657.319 649.633,662.829 639.35,662.97C636.61,663.042 633.885,662.541 631.35,661.5C624.96,658.68 621.35,651.7 620.01,644.84C618.67,637.98 619.09,630.9 618.14,623.97C617.38,618.45 615.76,613.09 614.92,607.58C612.86,593.95 616.92,580.49 619.81,566.92C620.51,565.69 621.22,564.47 621.95,563.26C624.013,559.762 626.329,556.42 628.88,553.26C634.88,546.03 642.59,540.47 650.22,534.99L642.22,534.99C642.455,534.818 642.738,534.726 643.029,534.726C643.722,534.726 644.311,535.252 644.39,535.94C645.18,542.94 655.05,549.94 657.2,556.74C658.53,560.92 660.13,565.02 661.2,569.28C662.043,572.908 662.684,576.581 663.12,580.28C664.54,590.633 665.953,600.967 667.36,611.28C669.13,623.87 670.65,637.48 664.35,648.46Z" style="fill-opacity:0.1;fill-rule:nonzero;"/>
    </g>
    <g transform="matrix(1,0,0,1,-91.39,-95.85)">
        <path d="M651.11,517.16L660.76,486.89C662.2,482.36 663.66,477.76 663.83,473C664,468.24 662.75,463.25 659.42,459.85C656.72,457.1 652.98,455.68 649.78,453.53C641.78,448.14 637.78,438.7 633.61,430.01C629.44,421.32 623.95,412.23 614.85,409.01C612.75,408.27 609.85,408.21 608.91,410.22C608.585,411.056 608.532,411.973 608.76,412.84C609.64,417.46 612.95,421.15 615.83,424.84C620.66,431.09 624.7,438.74 623.54,446.56C622.16,455.82 613.84,463 612.84,472.31C612.4,476.41 613.45,480.52 613.44,484.65C613.44,487.21 613.02,489.82 613.59,492.32C614.182,494.253 614.886,496.15 615.7,498C616.591,500.99 617.055,504.09 617.08,507.21L619.19,546.57C620.33,567.86 608.78,588.57 611.96,609.57C612.8,615.08 614.42,620.44 615.18,625.96C616.18,632.89 615.71,639.96 617.05,646.83C618.39,653.7 622.05,660.67 628.39,663.49C630.925,664.531 633.65,665.032 636.39,664.96C646.673,664.819 656.167,659.309 661.39,650.45C667.69,639.45 666.17,625.86 664.45,613.32L660.21,582.32C659.774,578.621 659.133,574.948 658.29,571.32C657.23,567.06 655.63,562.96 654.29,558.78C650,545.11 646.79,530.74 651.11,517.16Z" style="fill:rgb(251,190,190);fill-rule:nonzero;"/>
    </g>
    <path d="M824.57,431.63L824.57,557.69C824.57,562.089 820.999,565.66 816.6,565.66L609.54,565.66C605.141,565.66 601.57,562.089 601.57,557.69L601.57,431.63C601.57,427.231 605.141,423.66 609.54,423.66L816.6,423.66C820.999,423.66 824.57,427.231 824.57,431.63Z" style="fill:rgb(63,61,86);"/>
    <path d="M824.57,431.63L824.57,557.69C824.57,562.089 820.999,565.66 816.6,565.66L609.54,565.66C605.141,565.66 601.57,562.089 601.57,557.69L601.57,431.63C601.57,427.231 605.141,423.66 609.54,423.66L816.6,423.66C820.999,423.66 824.57,427.231 824.57,431.63Z" style="fill-opacity:0.2;"/>
    <circle cx="712.57" cy="494.66" r="6" style="fill:white;"/>
    <path d="M449.44,611L461.55,611C475.265,611 486.55,622.285 486.55,636L486.55,673.11L424.44,673.11L424.44,636C424.44,622.285 435.725,611 449.44,611Z" style="fill:rgb(63,61,86);fill-rule:nonzero;"/>
    <path d="M449.44,611L461.55,611C475.265,611 486.55,622.285 486.55,636L486.55,673.11L424.44,673.11L424.44,636C424.44,622.285 435.725,611 449.44,611Z" style="fill-opacity:0.1;fill-rule:nonzero;"/>
    <circle cx="453.02" cy="619.7" r="4.97" style="fill:rgb(63,61,86);"/>
    <circle cx="453.02" cy="613.49" r="4.97" style="fill:rgb(63,61,86);"/>
    <circle cx="453.02" cy="607.28" r="4.97" style="fill:rgb(63,61,86);"/>
    <circle cx="453.02" cy="601.07" r="4.97" style="fill:rgb(63,61,86);"/>
    <circle cx="453.02" cy="594.86" r="4.97" style="fill:rgb(63,61,86);"/>
    <circle cx="453.02" cy="588.65" r="4.97" style="fill:rgb(63,61,86);"/>
    <circle cx="453.02" cy="582.44" r="4.97" style="fill:rgb(63,61,86);"/>
    <circle cx="460.47" cy="584.92" r="4.97" style="fill:rgb(63,61,86);"/>
    <circle cx="465.44" cy="582.44" r="4.97" style="fill:rgb(63,61,86);"/>
    <circle cx="470.41" cy="579.95" r="4.97" style="fill:rgb(63,61,86);"/>
    <circle cx="453.02" cy="576.22" r="4.97" style="fill:rgb(63,61,86);"/>
    <circle cx="453.02" cy="570.01" r="4.97" style="fill:rgb(63,61,86);"/>
    <circle cx="453.02" cy="563.8" r="4.97" style="fill:rgb(63,61,86);"/>
    <circle cx="453.02" cy="557.59" r="4.97" style="fill:rgb(63,61,86);"/>
    <g transform="matrix(1,0,0,1,-91.39,-95.85)">
        <path d="M565,637.41C563.77,637.59 562.53,637.72 561.29,637.8C562.443,636.794 563.513,635.697 564.49,634.52C563.798,632.433 562.786,630.466 561.49,628.69C560.258,629.382 558.896,629.811 557.49,629.95C556.26,630.13 555.02,630.27 553.78,630.35C555.446,628.764 557.032,627.095 558.53,625.35C554.657,621.867 549.629,619.938 544.42,619.938C532.845,619.938 523.32,629.463 523.32,641.038C523.32,652.613 532.845,662.138 544.42,662.138C555.995,662.138 565.52,652.613 565.52,641.038C565.52,641.025 565.52,641.013 565.52,641C565.52,639.783 565.413,638.568 565.2,637.37L565,637.41Z" style="fill:rgb(221,0,241);fill-rule:nonzero;"/>
    </g>
    <g transform="matrix(1,0,0,1,-91.39,-95.85)">
        <path d="M581.61,662.1C580.341,662.877 578.911,663.356 577.43,663.5C576.2,663.68 574.96,663.81 573.72,663.89C575.038,662.708 576.268,661.431 577.4,660.07C576.375,659.803 575.321,659.668 574.261,659.668C567.437,659.668 561.821,665.283 561.821,672.108C561.821,678.932 567.437,684.548 574.261,684.548C581.086,684.548 586.701,678.932 586.701,672.108C586.701,668.145 584.808,664.411 581.61,662.07L581.61,662.1Z" style="fill:rgb(221,0,241);fill-rule:nonzero;"/>
    </g>
    <circle cx="445.56" cy="584.92" r="4.97" style="fill:rgb(63,61,86);"/>
    <circle cx="440.59" cy="582.44" r="4.97" style="fill:rgb(63,61,86);"/>
    <circle cx="435.62" cy="579.95" r="4.97" style="fill:rgb(63,61,86);"/>
    <g transform="matrix(1,0,0,1,-95.0585,-95.85)">
        <path d="M507.2,662.1C508.469,662.879 509.898,663.358 511.38,663.5C512.61,663.68 513.85,663.81 515.09,663.89C513.77,662.71 512.539,661.434 511.41,660.07C512.435,659.803 513.489,659.668 514.549,659.668C521.373,659.668 526.989,665.283 526.989,672.108C526.989,678.932 521.373,684.548 514.549,684.548C507.724,684.548 502.109,678.932 502.109,672.108C502.109,668.145 504.002,664.411 507.2,662.07L507.2,662.1Z" style="fill:rgb(221,0,241);fill-rule:nonzero;"/>
    </g>
    <path d="M449.44,614.73L461.55,614.73C475.265,614.73 486.55,626.015 486.55,639.73L486.55,672.6C486.55,674.926 484.636,676.84 482.31,676.84L428.68,676.84C426.354,676.84 424.44,674.926 424.44,672.6L424.44,639.73C424.44,626.015 435.725,614.73 449.44,614.73Z" style="fill:rgb(63,61,86);fill-rule:nonzero;"/>
    <g opacity="0.1">
        <g transform="matrix(1,0,0,1,-91.39,-95.85)">
            <path d="M565.38,638.77C564.877,639.308 564.343,639.815 563.78,640.29C564.35,640.29 564.91,640.2 565.48,640.14C565.46,639.68 565.43,639.22 565.38,638.77Z" style="fill-rule:nonzero;"/>
        </g>
        <g transform="matrix(1,0,0,1,-91.39,-95.85)">
            <path d="M556.32,632.83C557.57,632.75 558.8,632.62 560.04,632.44C561.152,632.299 562.24,632.003 563.27,631.56C562.764,630.56 562.182,629.601 561.53,628.69C560.908,629.069 560.234,629.355 559.53,629.54C558.549,630.72 557.476,631.821 556.32,632.83Z" style="fill-rule:nonzero;"/>
        </g>
        <g transform="matrix(1,0,0,1,-91.39,-95.85)">
            <path d="M525.77,643.5C525.77,643.486 525.77,643.472 525.77,643.459C525.77,631.894 535.286,622.379 546.85,622.379C550.9,622.379 554.866,623.546 558.27,625.74L558.59,625.4C554.728,621.964 549.734,620.064 544.564,620.064C532.989,620.064 523.464,629.588 523.464,641.164C523.464,647.291 526.133,653.124 530.77,657.13C527.537,653.327 525.763,648.492 525.77,643.5Z" style="fill-rule:nonzero;"/>
        </g>
    </g>
    <g opacity="0.1">
        <g transform="matrix(1,0,0,1,-91.39,-95.85)">
            <path d="M573.72,666.37C574.96,666.29 576.2,666.16 577.43,665.98C578.912,665.84 580.343,665.361 581.61,664.58C584.448,666.67 586.267,669.872 586.61,673.38C586.659,672.945 586.682,672.508 586.68,672.07C586.699,668.134 584.84,664.416 581.68,662.07C580.411,662.847 578.981,663.326 577.5,663.47L576.5,663.59C575.647,664.587 574.717,665.517 573.72,666.37Z" style="fill-rule:nonzero;"/>
        </g>
        <g transform="matrix(1,0,0,1,-91.39,-95.85)">
            <path d="M574.22,662.13C574.635,662.135 575.049,662.165 575.46,662.22C576.11,661.53 576.75,660.79 577.4,660.07C576.356,659.791 575.28,659.65 574.2,659.65C567.398,659.65 561.8,665.248 561.8,672.05C561.8,672.057 561.8,672.063 561.8,672.07C561.8,672.49 561.8,672.9 561.86,673.31C562.494,666.994 567.872,662.129 574.22,662.13Z" style="fill-rule:nonzero;"/>
        </g>
    </g>
    <g opacity="0.1">
        <g transform="matrix(1,0,0,1,-91.39,-95.85)">
            <path d="M515.09,666.37C513.85,666.29 512.61,666.16 511.38,665.98C509.897,665.842 508.467,665.363 507.2,664.58C504.362,666.67 502.543,669.872 502.2,673.38C502.151,672.945 502.128,672.508 502.13,672.07C502.111,668.134 503.97,664.416 507.13,662.07C508.399,662.849 509.828,663.328 511.31,663.47L512.31,663.59C513.158,664.592 514.088,665.522 515.09,666.37Z" style="fill-rule:nonzero;"/>
        </g>
        <g transform="matrix(1,0,0,1,-91.39,-95.85)">
            <path d="M514.59,662.13C514.172,662.135 513.754,662.165 513.34,662.22C512.7,661.53 512.06,660.79 511.41,660.07C512.454,659.791 513.53,659.65 514.61,659.65C521.412,659.65 527.01,665.248 527.01,672.05C527.01,672.057 527.01,672.063 527.01,672.07C527.01,672.49 527.01,672.9 526.95,673.31C526.316,666.994 520.938,662.129 514.59,662.13Z" style="fill-rule:nonzero;"/>
        </g>
    </g>
    <rect x="158.11" y="179.65" width="226" height="88" style="fill:rgb(221,0,241);"/>
    <path d="M529.11,191.65L529.11,255.65C529.11,262.273 523.733,267.65 517.11,267.65L170.11,267.65C163.487,267.65 158.11,262.273 158.11,255.65L158.11,191.65C158.11,185.027 163.487,179.65 170.11,179.65L517.11,179.65C523.733,179.65 529.11,185.027 529.11,191.65Z" style="fill:none;stroke:rgb(63,61,86);stroke-width:9px;"/>
    <g transform="matrix(1,0,0,1,-91.39,-95.85)">
        <path d="M452.76,314.79C451.084,306.351 443.611,300.216 435.007,300.216C428.25,300.216 422.034,303.999 418.93,310C411.599,310.773 405.969,317.028 405.969,324.4C405.969,332.344 412.506,338.88 420.449,338.88C420.466,338.88 420.483,338.88 420.5,338.88L451.92,338.88C458.56,338.864 464.011,333.39 464,326.75C464.026,320.447 459.053,315.155 452.76,314.79ZM438.87,321.92L438.87,331.1L431.13,331.1L431.13,321.92L422.92,321.92L435,309.83L447.08,321.92L438.87,321.92Z" style="fill:white;fill-rule:nonzero;"/>
    </g>
    <defs>
        <linearGradient id="_Linear1" x1="0" y1="0" x2="1" y2="0" gradientUnits="userSpaceOnUse" gradientTransform="matrix(3.13295e-14,-511.65,511.65,3.13295e-14,815.82,804.15)"><stop offset="0" style="stop-color:rgb(128,128,128);stop-opacity:0.25"/><stop offset="0.54" style="stop-color:rgb(128,128,128);stop-opacity:0.12"/><stop offset="1" style="stop-color:rgb(128,128,128);stop-opacity:0.1"/></linearGradient>
    </defs>
</svg>
