<?xml version="1.0" encoding="UTF-8" standalone="no"?>
<!DOCTYPE svg PUBLIC "-//W3C//DTD SVG 1.1//EN" "http://www.w3.org/Graphics/SVG/1.1/DTD/svg11.dtd">
<svg width="100%" height="100%" viewBox="0 0 530 480" version="1.1" xmlns="http://www.w3.org/2000/svg" xmlns:xlink="http://www.w3.org/1999/xlink" xml:space="preserve" xmlns:serif="http://www.serif.com/" style="fill-rule:evenodd;clip-rule:evenodd;stroke-linejoin:round;stroke-miterlimit:2;">
    <g transform="matrix(1,0,0,1,-335.42,-210.428)">
        <path d="M765.724,403.199C737.553,382.139 693.432,362.222 644.672,348.556C600.276,336.112 556.974,330.104 522.733,331.638L522.555,327.656C557.204,326.105 600.955,332.163 645.748,344.718C694.962,358.512 739.562,378.664 768.11,400.006L765.724,403.199Z" style="fill:rgb(63,61,86);fill-rule:nonzero;"/>
    </g>
    <g transform="matrix(1,0,0,1,-335.42,-210.428)">
        <path d="M762.799,419.42C762.824,438.078 758.912,456.533 751.32,473.576C750.686,475.003 750.026,476.417 749.339,477.817C727.049,523.471 680.494,552.549 629.689,552.549C556.654,552.549 496.552,492.456 496.541,419.42C496.541,416.339 496.646,413.282 496.856,410.248C496.955,408.706 497.084,407.173 497.243,405.649C504.264,338.161 561.812,286.291 629.663,286.291C702.697,286.291 762.795,346.386 762.799,419.42L762.799,419.42Z" style="fill:rgb(242,242,242);fill-rule:nonzero;"/>
    </g>
    <g transform="matrix(1,0,0,1,-335.42,-210.428)">
        <path d="M751.32,473.576C750.686,475.003 750.026,476.417 749.339,477.817C745.449,478.24 741.354,478.547 737.054,478.738C733.495,478.898 729.832,478.977 726.089,478.977C693.397,478.977 654.052,472.943 613.858,461.679C569.064,449.123 528.54,431.561 499.746,412.226C498.765,411.568 497.802,410.909 496.856,410.249C496.956,408.706 497.084,407.173 497.243,405.649C498.769,406.737 500.344,407.826 501.966,408.917C530.421,428.022 570.539,445.396 614.934,457.84C654.777,469.009 693.751,474.992 726.069,474.992C729.764,474.992 733.366,474.913 736.875,474.756C741.985,474.525 746.8,474.132 751.32,473.576Z" style="fill-opacity:0.1;fill-rule:nonzero;"/>
    </g>
    <g transform="matrix(1,0,0,1,-335.42,-210.428)">
        <path d="M726.09,475.789C693.398,475.79 654.051,469.755 613.859,458.49C569.066,445.935 528.539,428.372 499.745,409.037C470.35,389.299 456.566,369.849 460.932,354.271C465.298,338.694 487.183,329.242 522.555,327.656L522.733,331.638C506.215,332.379 492.753,334.834 482.722,338.936C472.715,343.027 466.675,348.549 464.77,355.347C462.864,362.145 465.155,370.002 471.577,378.698C478.015,387.416 488.24,396.51 501.967,405.728C530.419,424.833 570.539,442.208 614.935,454.652C654.779,465.819 693.75,471.804 726.07,471.804C729.763,471.804 733.364,471.726 736.874,471.569C753.392,470.828 766.854,468.373 776.885,464.272C786.892,460.18 792.932,454.658 794.837,447.86C798.258,435.653 787.919,419.792 765.724,403.199L768.11,400.007C779.532,408.545 787.987,416.962 793.24,425.023C798.872,433.665 800.701,441.71 798.675,448.936C794.309,464.514 772.424,473.965 737.052,475.551C733.493,475.71 729.832,475.789 726.09,475.789Z" style="fill:rgb(63,61,86);fill-rule:nonzero;"/>
    </g>
    <circle cx="297.772" cy="50.327" r="1.526" style="fill:rgb(242,242,242);"/>
    <circle cx="95.385" cy="115.426" r="2.624" style="fill:rgb(204,204,204);"/>
    <circle cx="89.792" cy="218.145" r="5.185" style="fill:rgb(204,204,204);"/>
    <circle cx="400.999" cy="59.481" r="3.455" style="fill:rgb(204,204,204);"/>
    <circle cx="523.55" cy="202.89" r="5.61" style="fill:rgb(204,204,204);"/>
    <circle cx="479.682" cy="113.287" r="2.407" style="fill:rgb(204,204,204);"/>
    <circle cx="187.425" cy="82.364" r="3.755" style="fill:rgb(204,204,204);"/>
    <circle cx="471.257" cy="191.514" r="2.407" style="fill:rgb(204,204,204);"/>
    <circle cx="2.996" cy="200.371" r="2.996" style="fill:rgb(204,204,204);"/>
    <circle cx="48.508" cy="151.068" r="3.244" style="fill:rgb(204,204,204);"/>
    <path d="M256.822,6.402L250.42,6.402L250.42,0L246.985,0L246.985,6.402L240.58,6.402L240.58,9.84L246.985,9.84L246.985,16.242L250.42,16.242L250.42,9.84L256.822,9.84L256.822,6.402Z" style="fill:rgb(204,204,204);fill-rule:nonzero;"/>
    <path d="M405.335,352.829L401.314,352.829L401.314,348.81L399.158,348.81L399.158,352.829L395.138,352.829L395.138,354.986L399.158,354.986L399.158,359.006L401.314,359.006L401.314,354.986L405.335,354.986L405.335,352.829Z" style="fill:rgb(204,204,204);fill-rule:nonzero;"/>
    <path d="M498.123,332.252L495.118,332.252L495.118,329.247L493.504,329.247L493.504,332.252L490.499,332.252L490.499,333.866L493.504,333.866L493.504,336.871L495.118,336.871L495.118,333.866L498.123,333.866L498.123,332.252Z" style="fill:rgb(204,204,204);fill-rule:nonzero;"/>
    <circle cx="210.308" cy="186.618" r="11.187" style="fill-opacity:0.1;"/>
    <circle cx="333.876" cy="298.998" r="11.187" style="fill-opacity:0.1;"/>
    <circle cx="296.247" cy="203.907" r="11.187" style="fill-opacity:0.1;"/>
    <circle cx="215.902" cy="265.437" r="11.187" style="fill-opacity:0.1;"/>
    <circle cx="356.251" cy="143.903" r="11.187" style="fill-opacity:0.1;"/>
    <circle cx="393.372" cy="219.671" r="11.187" style="fill-opacity:0.1;"/>
    <circle cx="356.251" cy="97.12" r="14.747" style="fill:white;"/>
    <g transform="matrix(1,0,0,1,-335.42,-210.328)">
        <path d="M691.67,286.191C680.233,286.191 670.822,295.602 670.822,307.039C670.822,318.554 691.67,356.365 691.67,356.365C691.67,356.365 712.519,318.554 712.519,307.039C712.519,295.602 703.108,286.191 691.67,286.191ZM691.67,317.21C686.37,317.21 682.009,312.848 682.009,307.548C682.009,302.248 686.37,297.886 691.67,297.886C696.971,297.886 701.332,302.248 701.332,307.548C701.332,307.548 701.332,307.548 701.332,307.548C701.332,312.848 696.971,317.21 691.67,317.21C691.67,317.21 691.67,317.21 691.67,317.21Z" style="fill:rgb(221,0,241);fill-rule:nonzero;"/>
    </g>
    <circle cx="210.251" cy="137.12" r="14.747" style="fill:white;"/>
    <g transform="matrix(1,0,0,1,-335.42,-210.428)">
        <path d="M545.67,326.191C534.233,326.191 524.822,335.602 524.822,347.039C524.822,358.554 545.67,396.365 545.67,396.365C545.67,396.365 566.519,358.554 566.519,347.039C566.519,335.602 557.108,326.191 545.67,326.191ZM545.67,357.21C540.37,357.21 536.009,352.848 536.009,347.548C536.009,342.248 540.37,337.886 545.67,337.886C550.971,337.886 555.332,342.248 555.332,347.548C555.332,347.548 555.332,347.548 555.332,347.548C555.332,352.848 550.971,357.21 545.67,357.21C545.67,357.21 545.67,357.21 545.67,357.21Z" style="fill:rgb(221,0,241);fill-rule:nonzero;"/>
    </g>
    <circle cx="395.251" cy="171.12" r="14.747" style="fill:white;"/>
    <g transform="matrix(1,0,0,1,-335.42,-210.428)">
        <path d="M730.67,360.191C719.233,360.191 709.822,369.602 709.822,381.039C709.822,392.554 730.67,430.365 730.67,430.365C730.67,430.365 751.519,392.554 751.519,381.039C751.519,369.602 742.108,360.191 730.67,360.191ZM730.67,391.21C725.37,391.21 721.009,386.848 721.009,381.548C721.009,376.248 725.37,371.886 730.67,371.886C735.971,371.886 740.332,376.248 740.332,381.548C740.332,381.548 740.332,381.548 740.332,381.548C740.332,386.848 735.971,391.21 730.67,391.21C730.67,391.21 730.67,391.21 730.67,391.21Z" style="fill:rgb(204,204,204);fill-rule:nonzero;"/>
    </g>
    <circle cx="145.251" cy="245.12" r="14.747" style="fill:white;"/>
    <g transform="matrix(1,0,0,1,-335.42,-210.428)">
        <path d="M480.67,434.191C469.233,434.191 459.822,443.602 459.822,455.039C459.822,466.554 480.67,504.365 480.67,504.365C480.67,504.365 501.519,466.554 501.519,455.039C501.519,443.602 492.108,434.191 480.67,434.191ZM480.67,465.21C475.37,465.21 471.009,460.848 471.009,455.548C471.009,450.248 475.37,445.886 480.67,445.886C485.971,445.886 490.332,450.248 490.332,455.548C490.332,455.548 490.332,455.548 490.332,455.548C490.332,460.848 485.971,465.21 480.67,465.21C480.67,465.21 480.67,465.21 480.67,465.21Z" style="fill:rgb(221,0,241);fill-rule:nonzero;"/>
    </g>
    <g transform="matrix(0.766735,-0.641963,0.641963,0.766735,-505.203,437.211)">
        <ellipse cx="806.286" cy="557.447" rx="6.76" ry="21.534" style="fill:rgb(47,46,65);"/>
    </g>
    <circle cx="425.059" cy="339.542" r="43.067" style="fill:rgb(47,46,65);"/>
    <rect x="430.204" y="373.341" width="13.084" height="23.442" style="fill:rgb(47,46,65);"/>
    <rect x="404.037" y="373.341" width="13.084" height="23.442" style="fill:rgb(47,46,65);"/>
    <ellipse cx="432.385" cy="397.055" rx="10.903" ry="4.089" style="fill:rgb(47,46,65);"/>
    <ellipse cx="406.217" cy="396.51" rx="10.903" ry="4.089" style="fill:rgb(47,46,65);"/>
    <g transform="matrix(1,0,0,1,-335.42,-210.428)">
        <path d="M746.956,495.833C750.802,480.346 767.777,471.232 784.871,475.476C801.965,479.721 812.705,495.717 808.86,511.204C805.014,526.691 792.256,526.741 775.161,522.496C758.067,518.251 743.111,511.32 746.956,495.833Z" style="fill:rgb(221,0,241);fill-rule:nonzero;"/>
    </g>
    <g transform="matrix(0.428529,-0.903528,0.903528,0.428529,-407.406,735.729)">
        <ellipse cx="711.971" cy="529.986" rx="6.76" ry="21.534" style="fill:rgb(47,46,65);"/>
    </g>
    <circle cx="418.621" cy="330.454" r="14.359" style="fill:white;"/>
    <circle cx="412.719" cy="325.307" r="4.786" style="fill:rgb(63,61,86);"/>
    <g transform="matrix(1,0,0,1,-335.42,-210.428)">
        <path d="M763.048,570.797C763.151,571.363 763.203,571.937 763.203,572.512C763.203,577.763 758.881,582.084 753.63,582.084C749.023,582.084 745.038,578.759 744.212,574.226L744.209,574.208C743.267,569.006 747.289,567.165 752.492,566.223C757.694,565.281 762.106,565.595 763.048,570.797Z" style="fill:white;fill-rule:nonzero;"/>
    </g>
    <g transform="matrix(1,0,0,1,-335.42,-210.428)">
        <path d="M671.784,458.477C666.391,453.926 659.558,451.429 652.502,451.429C636.101,451.429 622.604,464.925 622.604,481.327C622.604,497.728 636.101,511.225 652.502,511.225C660.349,511.225 667.888,508.136 673.479,502.631L710.152,533.576C710.649,533.996 711.279,534.226 711.929,534.226C713.441,534.226 714.684,532.982 714.684,531.471C714.684,530.661 714.328,529.892 713.71,529.368L713.706,529.365L677.032,498.42C685.816,485.814 683.525,468.386 671.784,458.477ZM669.419,495.44C665.166,500.481 658.896,503.395 652.3,503.395C640.012,503.395 629.9,493.283 629.9,480.995C629.9,468.707 640.012,458.595 652.3,458.595C657.586,458.595 662.705,460.466 666.745,463.875C676.137,471.8 677.344,486.049 669.419,495.44Z" style="fill:rgb(63,61,86);fill-rule:nonzero;"/>
    </g>
    <g transform="matrix(1,0,0,1,-335.42,-210.428)">
        <path d="M637.854,498.114C628.992,490.635 627.327,477.448 634.053,468.002C633.625,468.433 633.211,468.885 632.811,469.357C629.402,473.397 627.531,478.516 627.531,483.802C627.531,496.09 637.643,506.202 649.931,506.202C656.527,506.202 662.797,503.289 667.05,498.248C667.449,497.775 667.825,497.291 668.177,496.795C659.997,505.015 646.718,505.592 637.854,498.114Z" style="fill-opacity:0.3;fill-rule:nonzero;"/>
    </g>
    <g transform="matrix(0.357029,-0.934093,0.934093,0.357029,-512.009,567.921)">
        <ellipse cx="477.089" cy="517.447" rx="21.534" ry="6.76" style="fill:rgb(47,46,65);"/>
    </g>
    <circle cx="101.862" cy="339.541" r="43.067" style="fill:rgb(47,46,65);"/>
    <rect x="82.236" y="373.341" width="13.084" height="23.442" style="fill:rgb(47,46,65);"/>
    <rect x="108.404" y="373.341" width="13.084" height="23.442" style="fill:rgb(47,46,65);"/>
    <ellipse cx="93.139" cy="397.055" rx="10.903" ry="4.089" style="fill:rgb(47,46,65);"/>
    <ellipse cx="119.307" cy="396.51" rx="10.903" ry="4.089" style="fill:rgb(47,46,65);"/>
    <circle cx="102.952" cy="328.638" r="14.719" style="fill:white;"/>
    <circle cx="102.952" cy="328.638" r="4.906" style="fill:rgb(63,61,86);"/>
    <g transform="matrix(1,0,0,1,-335.42,-210.428)">
        <path d="M395.505,509.918C392.028,494.344 403.144,478.608 420.334,474.769C437.524,470.931 454.278,480.444 457.755,496.018C461.233,511.592 449.84,517.336 432.65,521.174C415.461,525.012 398.982,525.492 395.505,509.918Z" style="fill:rgb(221,0,241);fill-rule:nonzero;"/>
    </g>
    <g transform="matrix(0.428529,-0.903528,0.903528,0.428529,-592.104,443.711)">
        <ellipse cx="388.774" cy="529.986" rx="6.76" ry="21.534" style="fill:rgb(47,46,65);"/>
    </g>
    <g transform="matrix(1,0,0,1,-335.42,-210.428)">
        <path d="M416.127,565.506C416.127,569.721 426.981,578.045 439.024,578.045C451.067,578.045 462.359,566.178 462.359,561.963C462.359,557.748 451.067,562.781 439.024,562.781C426.981,562.781 416.127,561.291 416.127,565.506Z" style="fill:white;fill-rule:nonzero;"/>
    </g>
    <circle cx="241.581" cy="417.541" r="43.067" style="fill:rgb(47,46,65);"/>
    <rect x="221.956" y="451.341" width="13.084" height="23.442" style="fill:rgb(47,46,65);"/>
    <rect x="248.123" y="451.341" width="13.084" height="23.442" style="fill:rgb(47,46,65);"/>
    <ellipse cx="232.859" cy="475.055" rx="10.903" ry="4.089" style="fill:rgb(47,46,65);"/>
    <ellipse cx="259.026" cy="474.51" rx="10.903" ry="4.089" style="fill:rgb(47,46,65);"/>
    <g transform="matrix(1,0,0,1,-335.42,-210.428)">
        <path d="M535.224,587.918C531.747,572.344 542.863,556.608 560.053,552.769C577.243,548.931 593.997,558.444 597.475,574.018C600.952,589.592 589.56,595.336 572.37,599.174C555.18,603.012 538.702,603.492 535.224,587.918Z" style="fill:rgb(63,61,86);fill-rule:nonzero;"/>
    </g>
    <g transform="matrix(1,0,0,1,-335.42,-210.428)">
        <path d="M577.174,620.507C577.174,620.507 580.298,606.761 574.362,607.386C568.426,608.01 560.304,608.323 558.117,608.323C555.93,608.323 543.433,606.761 541.559,614.883C539.685,623.006 537.185,633.003 542.496,639.252C542.496,639.252 544.371,666.744 551.556,668.618C558.742,670.493 577.799,672.68 584.672,663.62C588.742,658.168 590.227,651.199 588.733,644.562L585.609,644.562L577.174,620.507Z" style="fill:rgb(221,0,241);fill-rule:nonzero;"/>
    </g>
    <g transform="matrix(1,0,0,1,-335.42,-210.428)">
        <path d="M545.62,641.438C545.62,641.438 550.931,643.938 561.866,642.376L561.866,647.062L545.62,645.812L545.62,641.438Z" style="fill-opacity:0.1;fill-rule:nonzero;"/>
    </g>
    <g transform="matrix(1,0,0,1,-335.42,-210.428)">
        <path d="M585.311,657.103L581.775,655.234L597.504,625.468C598.07,624.398 598.365,623.206 598.365,621.996C598.365,617.995 595.134,614.675 591.134,614.568L574.627,614.123L574.734,610.124L591.242,610.569C597.394,610.734 602.365,615.841 602.365,621.996C602.365,623.858 601.911,625.691 601.041,627.337L585.311,657.103Z" style="fill:rgb(221,0,241);fill-rule:nonzero;"/>
    </g>
    <g transform="matrix(1,0,0,1,-335.42,-210.428)">
        <path d="M547.294,657.103L531.564,627.337C530.694,625.691 530.24,623.858 530.24,621.996C530.24,615.841 535.21,610.735 541.363,610.569L557.871,610.124L557.978,614.123L541.471,614.568C537.471,614.675 534.24,617.995 534.24,621.996C534.24,623.206 534.535,624.398 535.101,625.468L550.83,655.234L547.294,657.103Z" style="fill:rgb(221,0,241);fill-rule:nonzero;"/>
    </g>
    <g transform="matrix(0.467594,-0.883944,0.883944,0.467594,-565.046,664.024)">
        <ellipse cx="611.105" cy="627.848" rx="7.501" ry="23.892" style="fill:rgb(47,46,65);"/>
    </g>
</svg>
